<svg xmlns="http://www.w3.org/2000/svg" xmlns:xlink="http://www.w3.org/1999/xlink"
    viewBox="0 0 400 400" width="400" height="400" preserveAspectRatio="xMidYMid meet"
    style="width: 100%; height: 100%; transform: translate3d(0px, 0px, 0px); content-visibility: visible;">
    <defs>
        <clipPath id="__lottie_element_2">
            <rect width="400" height="400" x="0" y="0"></rect>
        </clipPath>
    </defs>
    <g clip-path="url(#__lottie_element_2)">
        <g transform="matrix(1.5,0,0,1.5,-13,-13)" opacity="1" style="display: block;">
            <g opacity="1" transform="matrix(1,0,0,1,86.3270034790039,65.24600219726562)">
                <path fill="rgb(0,0,0)" fill-opacity="1"
                    d=" M-9.743000030517578,9.743000030517578 C-9.743000030517578,9.743000030517578 9.743000030517578,9.743000030517578 9.743000030517578,9.743000030517578 C9.743000030517578,9.743000030517578 9.743000030517578,-9.743000030517578 9.743000030517578,-9.743000030517578 C9.743000030517578,-9.743000030517578 -9.743000030517578,-9.743000030517578 -9.743000030517578,-9.743000030517578 C-9.743000030517578,-9.743000030517578 -9.743000030517578,9.743000030517578 -9.743000030517578,9.743000030517578z"></path>
            </g>
            <g opacity="1" transform="matrix(1,0,0,1,203.24200439453125,65.24600219726562)">
                <path fill="rgb(0,0,0)" fill-opacity="1"
                    d=" M9.743000030517578,-9.743000030517578 C9.743000030517578,-9.743000030517578 -9.743000030517578,-9.743000030517578 -9.743000030517578,-9.743000030517578 C-9.743000030517578,-9.743000030517578 -9.743000030517578,9.743000030517578 -9.743000030517578,9.743000030517578 C-9.743000030517578,9.743000030517578 9.743000030517578,9.743000030517578 9.743000030517578,9.743000030517578 C9.743000030517578,9.743000030517578 9.743000030517578,-9.743000030517578 9.743000030517578,-9.743000030517578z"></path>
            </g>
            <g opacity="1" transform="matrix(1,0,0,1,66.84100341796875,201.64700317382812)">
                <path fill="rgb(0,0,0)" fill-opacity="1"
                    d=" M-9.743000030517578,9.743000030517578 C-9.743000030517578,9.743000030517578 9.743000030517578,9.743000030517578 9.743000030517578,9.743000030517578 C9.743000030517578,9.743000030517578 9.743000030517578,-9.743000030517578 9.743000030517578,-9.743000030517578 C9.743000030517578,-9.743000030517578 -9.743000030517578,-9.743000030517578 -9.743000030517578,-9.743000030517578 C-9.743000030517578,-9.743000030517578 -9.743000030517578,9.743000030517578 -9.743000030517578,9.743000030517578z"></path>
            </g>
            <g opacity="1" transform="matrix(1,0,0,1,222.72799682617188,201.64700317382812)">
                <path fill="rgb(0,0,0)" fill-opacity="1"
                    d=" M9.743000030517578,-9.743000030517578 C9.743000030517578,-9.743000030517578 -9.743000030517578,-9.743000030517578 -9.743000030517578,-9.743000030517578 C-9.743000030517578,-9.743000030517578 -9.743000030517578,9.743000030517578 -9.743000030517578,9.743000030517578 C-9.743000030517578,9.743000030517578 9.743000030517578,9.743000030517578 9.743000030517578,9.743000030517578 C9.743000030517578,9.743000030517578 9.743000030517578,-9.743000030517578 9.743000030517578,-9.743000030517578z"></path>
            </g>
            <g opacity="1" transform="matrix(1,0,0,1,144.78500366210938,133.44700622558594)">
                <path fill="rgb(0,0,0)" fill-opacity="1"
                    d=" M87.68599700927734,-58.45800018310547 C87.68599700927734,-58.45800018310547 87.68599700927734,-19.486000061035156 87.68599700927734,-19.486000061035156 C87.68599700927734,-19.486000061035156 68.19999694824219,-19.486000061035156 68.19999694824219,-19.486000061035156 C68.19999694824219,-19.486000061035156 68.19999694824219,-38.97200012207031 68.19999694824219,-38.97200012207031 C68.19999694824219,-38.97200012207031 48.7140007019043,-38.97200012207031 48.7140007019043,-38.97200012207031 C48.7140007019043,-38.97200012207031 48.7140007019043,-58.45800018310547 48.7140007019043,-58.45800018310547 C48.7140007019043,-58.45800018310547 29.22800064086914,-58.45800018310547 29.22800064086914,-58.45800018310547 C29.22800064086914,-58.45800018310547 29.22800064086914,-38.97200012207031 29.22800064086914,-38.97200012207031 C29.22800064086914,-38.97200012207031 -29.229000091552734,-38.97200012207031 -29.229000091552734,-38.97200012207031 C-29.229000091552734,-38.97200012207031 -29.229000091552734,-58.45800018310547 -29.229000091552734,-58.45800018310547 C-29.229000091552734,-58.45800018310547 -48.71500015258789,-58.45800018310547 -48.71500015258789,-58.45800018310547 C-48.71500015258789,-58.45800018310547 -48.71500015258789,-38.97200012207031 -48.71500015258789,-38.97200012207031 C-48.71500015258789,-38.97200012207031 -68.20099639892578,-38.97200012207031 -68.20099639892578,-38.97200012207031 C-68.20099639892578,-38.97200012207031 -68.20099639892578,-19.486000061035156 -68.20099639892578,-19.486000061035156 C-68.20099639892578,-19.486000061035156 -87.68699645996094,-19.486000061035156 -87.68699645996094,-19.486000061035156 C-87.68699645996094,-19.486000061035156 -87.68699645996094,-58.45800018310547 -87.68699645996094,-58.45800018310547 C-87.68699645996094,-58.45800018310547 -107.1719970703125,-58.45800018310547 -107.1719970703125,-58.45800018310547 C-107.1719970703125,-58.45800018310547 -107.1719970703125,0 -107.1719970703125,0 C-107.1719970703125,0 -87.68699645996094,0 -87.68699645996094,0 C-87.68699645996094,0 -87.68699645996094,19.486000061035156 -87.68699645996094,19.486000061035156 C-87.68699645996094,19.486000061035156 -68.20099639892578,19.486000061035156 -68.20099639892578,19.486000061035156 C-68.20099639892578,19.486000061035156 -68.20099639892578,58.457000732421875 -68.20099639892578,58.457000732421875 C-68.20099639892578,58.457000732421875 -48.71500015258789,58.457000732421875 -48.71500015258789,58.457000732421875 C-48.71500015258789,58.457000732421875 -48.71500015258789,38.97100067138672 -48.71500015258789,38.97100067138672 C-48.71500015258789,38.97100067138672 48.7140007019043,38.97100067138672 48.7140007019043,38.97100067138672 C48.7140007019043,38.97100067138672 48.7140007019043,58.457000732421875 48.7140007019043,58.457000732421875 C48.7140007019043,58.457000732421875 68.19999694824219,58.457000732421875 68.19999694824219,58.457000732421875 C68.19999694824219,58.457000732421875 68.19999694824219,19.486000061035156 68.19999694824219,19.486000061035156 C68.19999694824219,19.486000061035156 87.68599700927734,19.486000061035156 87.68599700927734,19.486000061035156 C87.68599700927734,19.486000061035156 87.68599700927734,0 87.68599700927734,0 C87.68599700927734,0 107.1719970703125,0 107.1719970703125,0 C107.1719970703125,0 107.1719970703125,-58.45800018310547 107.1719970703125,-58.45800018310547 C107.1719970703125,-58.45800018310547 87.68599700927734,-58.45800018310547 87.68599700927734,-58.45800018310547z M48.7140007019043,-19.486000061035156 M48.7140007019043,0 C48.7140007019043,0 29.22800064086914,0 29.22800064086914,0 C29.22800064086914,0 29.22800064086914,-19.486000061035156 29.22800064086914,-19.486000061035156 C29.22800064086914,-19.486000061035156 48.7140007019043,-19.486000061035156 48.7140007019043,-19.486000061035156 C48.7140007019043,-19.486000061035156 48.7140007019043,0 48.7140007019043,0z M-29.229000091552734,-19.486000061035156 M-29.229000091552734,0 C-29.229000091552734,0 -48.71500015258789,0 -48.71500015258789,0 C-48.71500015258789,0 -48.71500015258789,-19.486000061035156 -48.71500015258789,-19.486000061035156 C-48.71500015258789,-19.486000061035156 -29.229000091552734,-19.486000061035156 -29.229000091552734,-19.486000061035156 C-29.229000091552734,-19.486000061035156 -29.229000091552734,0 -29.229000091552734,0z"></path>
            </g>
        </g>
        <g style="display: none;" transform="matrix(1.5,0,0,1.5,-13,-13)" opacity="1">
            <g opacity="1" transform="matrix(1,0,0,1,86.3270034790039,65.24600219726562)">
                <path fill="rgb(0,0,0)" fill-opacity="1"
                    d=" M-9.743000030517578,9.743000030517578 C-9.743000030517578,9.743000030517578 9.743000030517578,9.743000030517578 9.743000030517578,9.743000030517578 C9.743000030517578,9.743000030517578 9.743000030517578,-9.743000030517578 9.743000030517578,-9.743000030517578 C9.743000030517578,-9.743000030517578 -9.743000030517578,-9.743000030517578 -9.743000030517578,-9.743000030517578 C-9.743000030517578,-9.743000030517578 -9.743000030517578,9.743000030517578 -9.743000030517578,9.743000030517578z"></path>
            </g>
            <g opacity="1" transform="matrix(1,0,0,1,203.24200439453125,65.24600219726562)">
                <path fill="rgb(0,0,0)" fill-opacity="1"
                    d=" M9.743000030517578,-9.743000030517578 C9.743000030517578,-9.743000030517578 -9.743000030517578,-9.743000030517578 -9.743000030517578,-9.743000030517578 C-9.743000030517578,-9.743000030517578 -9.743000030517578,9.743000030517578 -9.743000030517578,9.743000030517578 C-9.743000030517578,9.743000030517578 9.743000030517578,9.743000030517578 9.743000030517578,9.743000030517578 C9.743000030517578,9.743000030517578 9.743000030517578,-9.743000030517578 9.743000030517578,-9.743000030517578z"></path>
            </g>
            <g opacity="1" transform="matrix(1,0,0,1,144.78500366210938,133.44700622558594)">
                <path fill="rgb(0,0,0)" fill-opacity="1"
                    d=" M87.68599700927734,-19.486000061035156 C87.68599700927734,-19.486000061035156 68.19999694824219,-19.486000061035156 68.19999694824219,-19.486000061035156 C68.19999694824219,-19.486000061035156 68.19999694824219,-38.97200012207031 68.19999694824219,-38.97200012207031 C68.19999694824219,-38.97200012207031 48.7140007019043,-38.97200012207031 48.7140007019043,-38.97200012207031 C48.7140007019043,-38.97200012207031 48.7140007019043,-58.45800018310547 48.7140007019043,-58.45800018310547 C48.7140007019043,-58.45800018310547 29.229000091552734,-58.45800018310547 29.229000091552734,-58.45800018310547 C29.229000091552734,-58.45800018310547 29.229000091552734,-38.97200012207031 29.229000091552734,-38.97200012207031 C29.229000091552734,-38.97200012207031 -29.229000091552734,-38.97200012207031 -29.229000091552734,-38.97200012207031 C-29.229000091552734,-38.97200012207031 -29.229000091552734,-58.45800018310547 -29.229000091552734,-58.45800018310547 C-29.229000091552734,-58.45800018310547 -48.71500015258789,-58.45800018310547 -48.71500015258789,-58.45800018310547 C-48.71500015258789,-58.45800018310547 -48.71500015258789,-38.97200012207031 -48.71500015258789,-38.97200012207031 C-48.71500015258789,-38.97200012207031 -68.20099639892578,-38.97200012207031 -68.20099639892578,-38.97200012207031 C-68.20099639892578,-38.97200012207031 -68.20099639892578,-19.486000061035156 -68.20099639892578,-19.486000061035156 C-68.20099639892578,-19.486000061035156 -87.68599700927734,-19.486000061035156 -87.68599700927734,-19.486000061035156 C-87.68599700927734,-19.486000061035156 -87.68599700927734,0 -87.68599700927734,0 C-87.68599700927734,0 -107.1719970703125,0 -107.1719970703125,0 C-107.1719970703125,0 -107.1719970703125,58.457000732421875 -107.1719970703125,58.457000732421875 C-107.1719970703125,58.457000732421875 -87.68599700927734,58.457000732421875 -87.68599700927734,58.457000732421875 C-87.68599700927734,58.457000732421875 -87.68599700927734,19.486000061035156 -87.68599700927734,19.486000061035156 C-87.68599700927734,19.486000061035156 -68.20099639892578,19.486000061035156 -68.20099639892578,19.486000061035156 C-68.20099639892578,19.486000061035156 -68.20099639892578,58.457000732421875 -68.20099639892578,58.457000732421875 C-68.20099639892578,58.457000732421875 -48.71500015258789,58.457000732421875 -48.71500015258789,58.457000732421875 C-48.71500015258789,58.457000732421875 -48.71500015258789,38.97100067138672 -48.71500015258789,38.97100067138672 C-48.71500015258789,38.97100067138672 48.7140007019043,38.97100067138672 48.7140007019043,38.97100067138672 C48.7140007019043,38.97100067138672 48.7140007019043,58.457000732421875 48.7140007019043,58.457000732421875 C48.7140007019043,58.457000732421875 68.19999694824219,58.457000732421875 68.19999694824219,58.457000732421875 C68.19999694824219,58.457000732421875 68.19999694824219,19.486000061035156 68.19999694824219,19.486000061035156 C68.19999694824219,19.486000061035156 87.68599700927734,19.486000061035156 87.68599700927734,19.486000061035156 C87.68599700927734,19.486000061035156 87.68599700927734,58.457000732421875 87.68599700927734,58.457000732421875 C87.68599700927734,58.457000732421875 107.1719970703125,58.457000732421875 107.1719970703125,58.457000732421875 C107.1719970703125,58.457000732421875 107.1719970703125,0 107.1719970703125,0 C107.1719970703125,0 87.68599700927734,0 87.68599700927734,0 C87.68599700927734,0 87.68599700927734,-19.486000061035156 87.68599700927734,-19.486000061035156z M48.7140007019043,-19.486000061035156 M48.7140007019043,0 C48.7140007019043,0 29.22800064086914,0 29.22800064086914,0 C29.22800064086914,0 29.22800064086914,-19.486000061035156 29.22800064086914,-19.486000061035156 C29.22800064086914,-19.486000061035156 48.7140007019043,-19.486000061035156 48.7140007019043,-19.486000061035156 C48.7140007019043,-19.486000061035156 48.7140007019043,0 48.7140007019043,0z M-29.229000091552734,-19.486000061035156 M-29.229000091552734,0 C-29.229000091552734,0 -48.71500015258789,0 -48.71500015258789,0 C-48.71500015258789,0 -48.71500015258789,-19.486000061035156 -48.71500015258789,-19.486000061035156 C-48.71500015258789,-19.486000061035156 -29.229000091552734,-19.486000061035156 -29.229000091552734,-19.486000061035156 C-29.229000091552734,-19.486000061035156 -29.229000091552734,0 -29.229000091552734,0z"></path>
            </g>
            <g opacity="1" transform="matrix(1,0,0,1,115.55599975585938,201.64700317382812)">
                <path fill="rgb(0,0,0)" fill-opacity="1"
                    d=" M0,9.743000030517578 C0,9.743000030517578 19.486000061035156,9.743000030517578 19.486000061035156,9.743000030517578 C19.486000061035156,9.743000030517578 19.486000061035156,-9.743000030517578 19.486000061035156,-9.743000030517578 C19.486000061035156,-9.743000030517578 0,-9.743000030517578 0,-9.743000030517578 C0,-9.743000030517578 -19.486000061035156,-9.743000030517578 -19.486000061035156,-9.743000030517578 C-19.486000061035156,-9.743000030517578 -19.486000061035156,9.743000030517578 -19.486000061035156,9.743000030517578 C-19.486000061035156,9.743000030517578 0,9.743000030517578 0,9.743000030517578z"></path>
            </g>
            <g opacity="1" transform="matrix(1,0,0,1,174.01400756835938,201.64700317382812)">
                <path fill="rgb(0,0,0)" fill-opacity="1"
                    d=" M-19.486000061035156,-9.743000030517578 C-19.486000061035156,-9.743000030517578 -19.486000061035156,9.743000030517578 -19.486000061035156,9.743000030517578 C-19.486000061035156,9.743000030517578 0,9.743000030517578 0,9.743000030517578 C0,9.743000030517578 19.486000061035156,9.743000030517578 19.486000061035156,9.743000030517578 C19.486000061035156,9.743000030517578 19.486000061035156,-9.743000030517578 19.486000061035156,-9.743000030517578 C19.486000061035156,-9.743000030517578 0,-9.743000030517578 0,-9.743000030517578 C0,-9.743000030517578 -19.486000061035156,-9.743000030517578 -19.486000061035156,-9.743000030517578z"></path>
            </g>
        </g>
    </g>
</svg>